<svg id="visual" viewBox="0 0 900 600" width="900" height="600" xmlns="http://www.w3.org/2000/svg" xmlns:xlink="http://www.w3.org/1999/xlink" version="1.1"><rect x="0" y="0" width="900" height="600" fill="#1e3a8a"></rect><path d="M0 509L25 502.7C50 496.3 100 483.7 150 486C200 488.3 250 505.7 300 520.8C350 536 400 549 450 540.5C500 532 550 502 600 484.8C650 467.7 700 463.3 750 473.5C800 483.7 850 508.3 875 520.7L900 533L900 601L875 601C850 601 800 601 750 601C700 601 650 601 600 601C550 601 500 601 450 601C400 601 350 601 300 601C250 601 200 601 150 601C100 601 50 601 25 601L0 601Z" fill="#e5e7eb" stroke-linecap="round" stroke-linejoin="miter"></path></svg>